<svg xmlns="http://www.w3.org/2000/svg" width="1800" height="900" viewBox="0 0 1800 900">
<rect width="100%" height="100%" fill="white"/>
<style>text{font-family:Arial,Helvetica,sans-serif}.title{font-size:26px;font-weight:700}.sub{font-size:18px;font-weight:700}.axis{font-size:12px;fill:#444}.label{font-size:11px;fill:#111}.note{font-size:13px;fill:#555}</style>
<text x="900.0" y="38" class="title" text-anchor="middle">True Uncertainty/Resistance Benchmark</text>
<text x="900.0" y="62" class="note" text-anchor="middle">Server 211.71.76.29, commit 0c0b3db, CUDA_VISIBLE_DEVICES=2 (RTX 5880 Ada), seeds 0-2</text>
<text x="260.0" y="100.0" class="sub" text-anchor="middle">cifar10: Clean accuracy</text>
<line x1="90.0" y1="390.0" x2="470.0" y2="390.0" stroke="#999"/>
<line x1="90.0" y1="125.0" x2="90.0" y2="390.0" stroke="#999"/>
<line x1="90.0" y1="390.0" x2="470.0" y2="390.0" stroke="#e6e6e6"/>
<text x="84.0" y="394.0" class="axis" text-anchor="end">0.00</text>
<line x1="90.0" y1="323.8" x2="470.0" y2="323.8" stroke="#e6e6e6"/>
<text x="84.0" y="327.8" class="axis" text-anchor="end">0.25</text>
<line x1="90.0" y1="257.5" x2="470.0" y2="257.5" stroke="#e6e6e6"/>
<text x="84.0" y="261.5" class="axis" text-anchor="end">0.50</text>
<line x1="90.0" y1="191.2" x2="470.0" y2="191.2" stroke="#e6e6e6"/>
<text x="84.0" y="195.2" class="axis" text-anchor="end">0.75</text>
<line x1="90.0" y1="125.0" x2="470.0" y2="125.0" stroke="#e6e6e6"/>
<text x="84.0" y="129.0" class="axis" text-anchor="end">1.00</text>
<rect x="102.0" y="262.0" width="37.0" height="128.0" fill="#4C78A8"/>
<text x="120.5" y="258.0" class="label" text-anchor="middle" transform="rotate(-70 120.5 258.0)">0.483</text>
<text x="120.5" y="404.0" class="axis" text-anchor="middle">linear</text>
<rect x="147.0" y="259.8" width="37.0" height="130.2" fill="#72B7B2"/>
<text x="165.5" y="255.8" class="label" text-anchor="middle" transform="rotate(-70 165.5 255.8)">0.491</text>
<text x="165.5" y="404.0" class="axis" text-anchor="middle">mlp</text>
<rect x="192.0" y="265.2" width="37.0" height="124.8" fill="#54A24B"/>
<text x="210.5" y="261.2" class="label" text-anchor="middle" transform="rotate(-70 210.5 261.2)">0.471</text>
<text x="210.5" y="404.0" class="axis" text-anchor="middle">cosine</text>
<text x="210.5" y="415.0" class="axis" text-anchor="middle">prototype</text>
<rect x="237.0" y="265.4" width="37.0" height="124.6" fill="#E45756"/>
<text x="255.5" y="261.4" class="label" text-anchor="middle" transform="rotate(-70 255.5 261.4)">0.470</text>
<text x="255.5" y="404.0" class="axis" text-anchor="middle">eml</text>
<text x="255.5" y="415.0" class="axis" text-anchor="middle">no</text>
<text x="255.5" y="426.0" class="axis" text-anchor="middle">ambiguity</text>
<rect x="282.0" y="269.2" width="37.0" height="120.8" fill="#F58518"/>
<text x="300.5" y="265.2" class="label" text-anchor="middle" transform="rotate(-70 300.5 265.2)">0.456</text>
<text x="300.5" y="404.0" class="axis" text-anchor="middle">eml</text>
<text x="300.5" y="415.0" class="axis" text-anchor="middle">centered</text>
<text x="300.5" y="426.0" class="axis" text-anchor="middle">ambiguity</text>
<rect x="327.0" y="268.4" width="37.0" height="121.6" fill="#B279A2"/>
<text x="345.5" y="264.4" class="label" text-anchor="middle" transform="rotate(-70 345.5 264.4)">0.459</text>
<text x="345.5" y="404.0" class="axis" text-anchor="middle">eml</text>
<text x="345.5" y="415.0" class="axis" text-anchor="middle">supervised</text>
<text x="345.5" y="426.0" class="axis" text-anchor="middle">resistance</text>
<rect x="372.0" y="271.4" width="37.0" height="118.6" fill="#9D755D"/>
<text x="390.5" y="267.4" class="label" text-anchor="middle" transform="rotate(-70 390.5 267.4)">0.447</text>
<text x="390.5" y="404.0" class="axis" text-anchor="middle">merc</text>
<text x="390.5" y="415.0" class="axis" text-anchor="middle">linear</text>
<rect x="417.0" y="264.7" width="37.0" height="125.3" fill="#BAB0AC"/>
<text x="435.5" y="260.7" class="label" text-anchor="middle" transform="rotate(-70 435.5 260.7)">0.473</text>
<text x="435.5" y="404.0" class="axis" text-anchor="middle">merc</text>
<text x="435.5" y="415.0" class="axis" text-anchor="middle">energy</text>
<text x="675.0" y="100.0" class="sub" text-anchor="middle">cifar10: Noisy accuracy</text>
<line x1="505.0" y1="390.0" x2="885.0" y2="390.0" stroke="#999"/>
<line x1="505.0" y1="125.0" x2="505.0" y2="390.0" stroke="#999"/>
<line x1="505.0" y1="390.0" x2="885.0" y2="390.0" stroke="#e6e6e6"/>
<text x="499.0" y="394.0" class="axis" text-anchor="end">0.00</text>
<line x1="505.0" y1="323.8" x2="885.0" y2="323.8" stroke="#e6e6e6"/>
<text x="499.0" y="327.8" class="axis" text-anchor="end">0.25</text>
<line x1="505.0" y1="257.5" x2="885.0" y2="257.5" stroke="#e6e6e6"/>
<text x="499.0" y="261.5" class="axis" text-anchor="end">0.50</text>
<line x1="505.0" y1="191.2" x2="885.0" y2="191.2" stroke="#e6e6e6"/>
<text x="499.0" y="195.2" class="axis" text-anchor="end">0.75</text>
<line x1="505.0" y1="125.0" x2="885.0" y2="125.0" stroke="#e6e6e6"/>
<text x="499.0" y="129.0" class="axis" text-anchor="end">1.00</text>
<rect x="517.0" y="285.0" width="37.0" height="105.0" fill="#4C78A8"/>
<text x="535.5" y="281.0" class="label" text-anchor="middle" transform="rotate(-70 535.5 281.0)">0.396</text>
<text x="535.5" y="404.0" class="axis" text-anchor="middle">linear</text>
<rect x="562.0" y="284.4" width="37.0" height="105.6" fill="#72B7B2"/>
<text x="580.5" y="280.4" class="label" text-anchor="middle" transform="rotate(-70 580.5 280.4)">0.398</text>
<text x="580.5" y="404.0" class="axis" text-anchor="middle">mlp</text>
<rect x="607.0" y="282.7" width="37.0" height="107.3" fill="#54A24B"/>
<text x="625.5" y="278.7" class="label" text-anchor="middle" transform="rotate(-70 625.5 278.7)">0.405</text>
<text x="625.5" y="404.0" class="axis" text-anchor="middle">cosine</text>
<text x="625.5" y="415.0" class="axis" text-anchor="middle">prototype</text>
<rect x="652.0" y="279.8" width="37.0" height="110.2" fill="#E45756"/>
<text x="670.5" y="275.8" class="label" text-anchor="middle" transform="rotate(-70 670.5 275.8)">0.416</text>
<text x="670.5" y="404.0" class="axis" text-anchor="middle">eml</text>
<text x="670.5" y="415.0" class="axis" text-anchor="middle">no</text>
<text x="670.5" y="426.0" class="axis" text-anchor="middle">ambiguity</text>
<rect x="697.0" y="287.1" width="37.0" height="102.9" fill="#F58518"/>
<text x="715.5" y="283.1" class="label" text-anchor="middle" transform="rotate(-70 715.5 283.1)">0.388</text>
<text x="715.5" y="404.0" class="axis" text-anchor="middle">eml</text>
<text x="715.5" y="415.0" class="axis" text-anchor="middle">centered</text>
<text x="715.5" y="426.0" class="axis" text-anchor="middle">ambiguity</text>
<rect x="742.0" y="285.4" width="37.0" height="104.6" fill="#B279A2"/>
<text x="760.5" y="281.4" class="label" text-anchor="middle" transform="rotate(-70 760.5 281.4)">0.395</text>
<text x="760.5" y="404.0" class="axis" text-anchor="middle">eml</text>
<text x="760.5" y="415.0" class="axis" text-anchor="middle">supervised</text>
<text x="760.5" y="426.0" class="axis" text-anchor="middle">resistance</text>
<rect x="787.0" y="289.5" width="37.0" height="100.5" fill="#9D755D"/>
<text x="805.5" y="285.5" class="label" text-anchor="middle" transform="rotate(-70 805.5 285.5)">0.379</text>
<text x="805.5" y="404.0" class="axis" text-anchor="middle">merc</text>
<text x="805.5" y="415.0" class="axis" text-anchor="middle">linear</text>
<rect x="832.0" y="282.1" width="37.0" height="107.9" fill="#BAB0AC"/>
<text x="850.5" y="278.1" class="label" text-anchor="middle" transform="rotate(-70 850.5 278.1)">0.407</text>
<text x="850.5" y="404.0" class="axis" text-anchor="middle">merc</text>
<text x="850.5" y="415.0" class="axis" text-anchor="middle">energy</text>
<text x="1090.0" y="100.0" class="sub" text-anchor="middle">cifar10: Clean ECE</text>
<line x1="920.0" y1="390.0" x2="1300.0" y2="390.0" stroke="#999"/>
<line x1="920.0" y1="125.0" x2="920.0" y2="390.0" stroke="#999"/>
<line x1="920.0" y1="390.0" x2="1300.0" y2="390.0" stroke="#e6e6e6"/>
<text x="914.0" y="394.0" class="axis" text-anchor="end">0.00</text>
<line x1="920.0" y1="288.1" x2="1300.0" y2="288.1" stroke="#e6e6e6"/>
<text x="914.0" y="292.1" class="axis" text-anchor="end">0.25</text>
<line x1="920.0" y1="186.2" x2="1300.0" y2="186.2" stroke="#e6e6e6"/>
<text x="914.0" y="190.2" class="axis" text-anchor="end">0.50</text>
<rect x="932.0" y="324.2" width="37.0" height="65.8" fill="#4C78A8"/>
<text x="950.5" y="320.2" class="label" text-anchor="middle" transform="rotate(-70 950.5 320.2)">0.161</text>
<text x="950.5" y="404.0" class="axis" text-anchor="middle">linear</text>
<rect x="977.0" y="371.7" width="37.0" height="18.3" fill="#72B7B2"/>
<text x="995.5" y="367.7" class="label" text-anchor="middle" transform="rotate(-70 995.5 367.7)">0.045</text>
<text x="995.5" y="404.0" class="axis" text-anchor="middle">mlp</text>
<rect x="1022.0" y="330.6" width="37.0" height="59.4" fill="#54A24B"/>
<text x="1040.5" y="326.6" class="label" text-anchor="middle" transform="rotate(-70 1040.5 326.6)">0.146</text>
<text x="1040.5" y="404.0" class="axis" text-anchor="middle">cosine</text>
<text x="1040.5" y="415.0" class="axis" text-anchor="middle">prototype</text>
<rect x="1067.0" y="341.6" width="37.0" height="48.4" fill="#E45756"/>
<text x="1085.5" y="337.6" class="label" text-anchor="middle" transform="rotate(-70 1085.5 337.6)">0.119</text>
<text x="1085.5" y="404.0" class="axis" text-anchor="middle">eml</text>
<text x="1085.5" y="415.0" class="axis" text-anchor="middle">no</text>
<text x="1085.5" y="426.0" class="axis" text-anchor="middle">ambiguity</text>
<rect x="1112.0" y="338.6" width="37.0" height="51.4" fill="#F58518"/>
<text x="1130.5" y="334.6" class="label" text-anchor="middle" transform="rotate(-70 1130.5 334.6)">0.126</text>
<text x="1130.5" y="404.0" class="axis" text-anchor="middle">eml</text>
<text x="1130.5" y="415.0" class="axis" text-anchor="middle">centered</text>
<text x="1130.5" y="426.0" class="axis" text-anchor="middle">ambiguity</text>
<rect x="1157.0" y="342.5" width="37.0" height="47.5" fill="#B279A2"/>
<text x="1175.5" y="338.5" class="label" text-anchor="middle" transform="rotate(-70 1175.5 338.5)">0.116</text>
<text x="1175.5" y="404.0" class="axis" text-anchor="middle">eml</text>
<text x="1175.5" y="415.0" class="axis" text-anchor="middle">supervised</text>
<text x="1175.5" y="426.0" class="axis" text-anchor="middle">resistance</text>
<rect x="1202.0" y="367.4" width="37.0" height="22.6" fill="#9D755D"/>
<text x="1220.5" y="363.4" class="label" text-anchor="middle" transform="rotate(-70 1220.5 363.4)">0.055</text>
<text x="1220.5" y="404.0" class="axis" text-anchor="middle">merc</text>
<text x="1220.5" y="415.0" class="axis" text-anchor="middle">linear</text>
<rect x="1247.0" y="372.0" width="37.0" height="18.0" fill="#BAB0AC"/>
<text x="1265.5" y="368.0" class="label" text-anchor="middle" transform="rotate(-70 1265.5 368.0)">0.044</text>
<text x="1265.5" y="404.0" class="axis" text-anchor="middle">merc</text>
<text x="1265.5" y="415.0" class="axis" text-anchor="middle">energy</text>
<text x="1505.0" y="100.0" class="sub" text-anchor="middle">cifar10: Clean selective AURC</text>
<line x1="1335.0" y1="390.0" x2="1715.0" y2="390.0" stroke="#999"/>
<line x1="1335.0" y1="125.0" x2="1335.0" y2="390.0" stroke="#999"/>
<line x1="1335.0" y1="390.0" x2="1715.0" y2="390.0" stroke="#e6e6e6"/>
<text x="1329.0" y="394.0" class="axis" text-anchor="end">0.00</text>
<line x1="1335.0" y1="269.5" x2="1715.0" y2="269.5" stroke="#e6e6e6"/>
<text x="1329.0" y="273.5" class="axis" text-anchor="end">0.25</text>
<line x1="1335.0" y1="149.1" x2="1715.0" y2="149.1" stroke="#e6e6e6"/>
<text x="1329.0" y="153.1" class="axis" text-anchor="end">0.50</text>
<rect x="1347.0" y="218.0" width="37.0" height="172.0" fill="#4C78A8"/>
<text x="1365.5" y="214.0" class="label" text-anchor="middle" transform="rotate(-70 1365.5 214.0)">0.357</text>
<text x="1365.5" y="404.0" class="axis" text-anchor="middle">linear</text>
<rect x="1392.0" y="222.9" width="37.0" height="167.1" fill="#72B7B2"/>
<text x="1410.5" y="218.9" class="label" text-anchor="middle" transform="rotate(-70 1410.5 218.9)">0.347</text>
<text x="1410.5" y="404.0" class="axis" text-anchor="middle">mlp</text>
<rect x="1437.0" y="212.3" width="37.0" height="177.7" fill="#54A24B"/>
<text x="1455.5" y="208.3" class="label" text-anchor="middle" transform="rotate(-70 1455.5 208.3)">0.369</text>
<text x="1455.5" y="404.0" class="axis" text-anchor="middle">cosine</text>
<text x="1455.5" y="415.0" class="axis" text-anchor="middle">prototype</text>
<rect x="1482.0" y="176.7" width="37.0" height="213.3" fill="#E45756"/>
<text x="1500.5" y="172.7" class="label" text-anchor="middle" transform="rotate(-70 1500.5 172.7)">0.443</text>
<text x="1500.5" y="404.0" class="axis" text-anchor="middle">eml</text>
<text x="1500.5" y="415.0" class="axis" text-anchor="middle">no</text>
<text x="1500.5" y="426.0" class="axis" text-anchor="middle">ambiguity</text>
<rect x="1527.0" y="256.4" width="37.0" height="133.6" fill="#F58518"/>
<text x="1545.5" y="252.4" class="label" text-anchor="middle" transform="rotate(-70 1545.5 252.4)">0.277</text>
<text x="1545.5" y="404.0" class="axis" text-anchor="middle">eml</text>
<text x="1545.5" y="415.0" class="axis" text-anchor="middle">centered</text>
<text x="1545.5" y="426.0" class="axis" text-anchor="middle">ambiguity</text>
<rect x="1572.0" y="234.0" width="37.0" height="156.0" fill="#B279A2"/>
<text x="1590.5" y="230.0" class="label" text-anchor="middle" transform="rotate(-70 1590.5 230.0)">0.324</text>
<text x="1590.5" y="404.0" class="axis" text-anchor="middle">eml</text>
<text x="1590.5" y="415.0" class="axis" text-anchor="middle">supervised</text>
<text x="1590.5" y="426.0" class="axis" text-anchor="middle">resistance</text>
<rect x="1617.0" y="139.1" width="37.0" height="250.9" fill="#9D755D"/>
<text x="1635.5" y="135.1" class="label" text-anchor="middle" transform="rotate(-70 1635.5 135.1)">0.521</text>
<text x="1635.5" y="404.0" class="axis" text-anchor="middle">merc</text>
<text x="1635.5" y="415.0" class="axis" text-anchor="middle">linear</text>
<rect x="1662.0" y="206.9" width="37.0" height="183.1" fill="#BAB0AC"/>
<text x="1680.5" y="202.9" class="label" text-anchor="middle" transform="rotate(-70 1680.5 202.9)">0.380</text>
<text x="1680.5" y="404.0" class="axis" text-anchor="middle">merc</text>
<text x="1680.5" y="415.0" class="axis" text-anchor="middle">energy</text>
<text x="260.0" y="460.0" class="sub" text-anchor="middle">synthetic_shape: Clean accuracy</text>
<line x1="90.0" y1="750.0" x2="470.0" y2="750.0" stroke="#999"/>
<line x1="90.0" y1="485.0" x2="90.0" y2="750.0" stroke="#999"/>
<line x1="90.0" y1="750.0" x2="470.0" y2="750.0" stroke="#e6e6e6"/>
<text x="84.0" y="754.0" class="axis" text-anchor="end">0.00</text>
<line x1="90.0" y1="683.8" x2="470.0" y2="683.8" stroke="#e6e6e6"/>
<text x="84.0" y="687.8" class="axis" text-anchor="end">0.25</text>
<line x1="90.0" y1="617.5" x2="470.0" y2="617.5" stroke="#e6e6e6"/>
<text x="84.0" y="621.5" class="axis" text-anchor="end">0.50</text>
<line x1="90.0" y1="551.2" x2="470.0" y2="551.2" stroke="#e6e6e6"/>
<text x="84.0" y="555.2" class="axis" text-anchor="end">0.75</text>
<line x1="90.0" y1="485.0" x2="470.0" y2="485.0" stroke="#e6e6e6"/>
<text x="84.0" y="489.0" class="axis" text-anchor="end">1.00</text>
<rect x="102.0" y="486.5" width="37.0" height="263.5" fill="#4C78A8"/>
<text x="120.5" y="482.5" class="label" text-anchor="middle" transform="rotate(-70 120.5 482.5)">0.994</text>
<text x="120.5" y="764.0" class="axis" text-anchor="middle">linear</text>
<rect x="147.0" y="486.2" width="37.0" height="263.8" fill="#72B7B2"/>
<text x="165.5" y="482.2" class="label" text-anchor="middle" transform="rotate(-70 165.5 482.2)">0.996</text>
<text x="165.5" y="764.0" class="axis" text-anchor="middle">mlp</text>
<rect x="192.0" y="486.4" width="37.0" height="263.6" fill="#54A24B"/>
<text x="210.5" y="482.4" class="label" text-anchor="middle" transform="rotate(-70 210.5 482.4)">0.995</text>
<text x="210.5" y="764.0" class="axis" text-anchor="middle">cosine</text>
<text x="210.5" y="775.0" class="axis" text-anchor="middle">prototype</text>
<rect x="237.0" y="486.3" width="37.0" height="263.7" fill="#E45756"/>
<text x="255.5" y="482.3" class="label" text-anchor="middle" transform="rotate(-70 255.5 482.3)">0.995</text>
<text x="255.5" y="764.0" class="axis" text-anchor="middle">eml</text>
<text x="255.5" y="775.0" class="axis" text-anchor="middle">no</text>
<text x="255.5" y="786.0" class="axis" text-anchor="middle">ambiguity</text>
<rect x="282.0" y="486.3" width="37.0" height="263.7" fill="#F58518"/>
<text x="300.5" y="482.3" class="label" text-anchor="middle" transform="rotate(-70 300.5 482.3)">0.995</text>
<text x="300.5" y="764.0" class="axis" text-anchor="middle">eml</text>
<text x="300.5" y="775.0" class="axis" text-anchor="middle">centered</text>
<text x="300.5" y="786.0" class="axis" text-anchor="middle">ambiguity</text>
<rect x="327.0" y="486.3" width="37.0" height="263.7" fill="#B279A2"/>
<text x="345.5" y="482.3" class="label" text-anchor="middle" transform="rotate(-70 345.5 482.3)">0.995</text>
<text x="345.5" y="764.0" class="axis" text-anchor="middle">eml</text>
<text x="345.5" y="775.0" class="axis" text-anchor="middle">supervised</text>
<text x="345.5" y="786.0" class="axis" text-anchor="middle">resistance</text>
<rect x="372.0" y="486.3" width="37.0" height="263.7" fill="#9D755D"/>
<text x="390.5" y="482.3" class="label" text-anchor="middle" transform="rotate(-70 390.5 482.3)">0.995</text>
<text x="390.5" y="764.0" class="axis" text-anchor="middle">merc</text>
<text x="390.5" y="775.0" class="axis" text-anchor="middle">linear</text>
<rect x="417.0" y="496.4" width="37.0" height="253.6" fill="#BAB0AC"/>
<text x="435.5" y="492.4" class="label" text-anchor="middle" transform="rotate(-70 435.5 492.4)">0.957</text>
<text x="435.5" y="764.0" class="axis" text-anchor="middle">merc</text>
<text x="435.5" y="775.0" class="axis" text-anchor="middle">energy</text>
<text x="675.0" y="460.0" class="sub" text-anchor="middle">synthetic_shape: Noisy accuracy</text>
<line x1="505.0" y1="750.0" x2="885.0" y2="750.0" stroke="#999"/>
<line x1="505.0" y1="485.0" x2="505.0" y2="750.0" stroke="#999"/>
<line x1="505.0" y1="750.0" x2="885.0" y2="750.0" stroke="#e6e6e6"/>
<text x="499.0" y="754.0" class="axis" text-anchor="end">0.00</text>
<line x1="505.0" y1="683.8" x2="885.0" y2="683.8" stroke="#e6e6e6"/>
<text x="499.0" y="687.8" class="axis" text-anchor="end">0.25</text>
<line x1="505.0" y1="617.5" x2="885.0" y2="617.5" stroke="#e6e6e6"/>
<text x="499.0" y="621.5" class="axis" text-anchor="end">0.50</text>
<line x1="505.0" y1="551.2" x2="885.0" y2="551.2" stroke="#e6e6e6"/>
<text x="499.0" y="555.2" class="axis" text-anchor="end">0.75</text>
<line x1="505.0" y1="485.0" x2="885.0" y2="485.0" stroke="#e6e6e6"/>
<text x="499.0" y="489.0" class="axis" text-anchor="end">1.00</text>
<rect x="517.0" y="501.6" width="37.0" height="248.4" fill="#4C78A8"/>
<text x="535.5" y="497.6" class="label" text-anchor="middle" transform="rotate(-70 535.5 497.6)">0.937</text>
<text x="535.5" y="764.0" class="axis" text-anchor="middle">linear</text>
<rect x="562.0" y="496.4" width="37.0" height="253.6" fill="#72B7B2"/>
<text x="580.5" y="492.4" class="label" text-anchor="middle" transform="rotate(-70 580.5 492.4)">0.957</text>
<text x="580.5" y="764.0" class="axis" text-anchor="middle">mlp</text>
<rect x="607.0" y="501.4" width="37.0" height="248.6" fill="#54A24B"/>
<text x="625.5" y="497.4" class="label" text-anchor="middle" transform="rotate(-70 625.5 497.4)">0.938</text>
<text x="625.5" y="764.0" class="axis" text-anchor="middle">cosine</text>
<text x="625.5" y="775.0" class="axis" text-anchor="middle">prototype</text>
<rect x="652.0" y="500.7" width="37.0" height="249.3" fill="#E45756"/>
<text x="670.5" y="496.7" class="label" text-anchor="middle" transform="rotate(-70 670.5 496.7)">0.941</text>
<text x="670.5" y="764.0" class="axis" text-anchor="middle">eml</text>
<text x="670.5" y="775.0" class="axis" text-anchor="middle">no</text>
<text x="670.5" y="786.0" class="axis" text-anchor="middle">ambiguity</text>
<rect x="697.0" y="500.7" width="37.0" height="249.3" fill="#F58518"/>
<text x="715.5" y="496.7" class="label" text-anchor="middle" transform="rotate(-70 715.5 496.7)">0.941</text>
<text x="715.5" y="764.0" class="axis" text-anchor="middle">eml</text>
<text x="715.5" y="775.0" class="axis" text-anchor="middle">centered</text>
<text x="715.5" y="786.0" class="axis" text-anchor="middle">ambiguity</text>
<rect x="742.0" y="500.8" width="37.0" height="249.2" fill="#B279A2"/>
<text x="760.5" y="496.8" class="label" text-anchor="middle" transform="rotate(-70 760.5 496.8)">0.940</text>
<text x="760.5" y="764.0" class="axis" text-anchor="middle">eml</text>
<text x="760.5" y="775.0" class="axis" text-anchor="middle">supervised</text>
<text x="760.5" y="786.0" class="axis" text-anchor="middle">resistance</text>
<rect x="787.0" y="494.4" width="37.0" height="255.6" fill="#9D755D"/>
<text x="805.5" y="490.4" class="label" text-anchor="middle" transform="rotate(-70 805.5 490.4)">0.965</text>
<text x="805.5" y="764.0" class="axis" text-anchor="middle">merc</text>
<text x="805.5" y="775.0" class="axis" text-anchor="middle">linear</text>
<rect x="832.0" y="505.5" width="37.0" height="244.5" fill="#BAB0AC"/>
<text x="850.5" y="501.5" class="label" text-anchor="middle" transform="rotate(-70 850.5 501.5)">0.923</text>
<text x="850.5" y="764.0" class="axis" text-anchor="middle">merc</text>
<text x="850.5" y="775.0" class="axis" text-anchor="middle">energy</text>
<text x="1090.0" y="460.0" class="sub" text-anchor="middle">synthetic_shape: Clean ECE</text>
<line x1="920.0" y1="750.0" x2="1300.0" y2="750.0" stroke="#999"/>
<line x1="920.0" y1="485.0" x2="920.0" y2="750.0" stroke="#999"/>
<line x1="920.0" y1="750.0" x2="1300.0" y2="750.0" stroke="#e6e6e6"/>
<text x="914.0" y="754.0" class="axis" text-anchor="end">0.00</text>
<line x1="920.0" y1="648.1" x2="1300.0" y2="648.1" stroke="#e6e6e6"/>
<text x="914.0" y="652.1" class="axis" text-anchor="end">0.25</text>
<line x1="920.0" y1="546.2" x2="1300.0" y2="546.2" stroke="#e6e6e6"/>
<text x="914.0" y="550.2" class="axis" text-anchor="end">0.50</text>
<rect x="932.0" y="663.0" width="37.0" height="87.0" fill="#4C78A8"/>
<text x="950.5" y="659.0" class="label" text-anchor="middle" transform="rotate(-70 950.5 659.0)">0.213</text>
<text x="950.5" y="764.0" class="axis" text-anchor="middle">linear</text>
<rect x="977.0" y="737.2" width="37.0" height="12.8" fill="#72B7B2"/>
<text x="995.5" y="733.2" class="label" text-anchor="middle" transform="rotate(-70 995.5 733.2)">0.031</text>
<text x="995.5" y="764.0" class="axis" text-anchor="middle">mlp</text>
<rect x="1022.0" y="672.5" width="37.0" height="77.5" fill="#54A24B"/>
<text x="1040.5" y="668.5" class="label" text-anchor="middle" transform="rotate(-70 1040.5 668.5)">0.190</text>
<text x="1040.5" y="764.0" class="axis" text-anchor="middle">cosine</text>
<text x="1040.5" y="775.0" class="axis" text-anchor="middle">prototype</text>
<rect x="1067.0" y="571.7" width="37.0" height="178.3" fill="#E45756"/>
<text x="1085.5" y="567.7" class="label" text-anchor="middle" transform="rotate(-70 1085.5 567.7)">0.437</text>
<text x="1085.5" y="764.0" class="axis" text-anchor="middle">eml</text>
<text x="1085.5" y="775.0" class="axis" text-anchor="middle">no</text>
<text x="1085.5" y="786.0" class="axis" text-anchor="middle">ambiguity</text>
<rect x="1112.0" y="575.9" width="37.0" height="174.1" fill="#F58518"/>
<text x="1130.5" y="571.9" class="label" text-anchor="middle" transform="rotate(-70 1130.5 571.9)">0.427</text>
<text x="1130.5" y="764.0" class="axis" text-anchor="middle">eml</text>
<text x="1130.5" y="775.0" class="axis" text-anchor="middle">centered</text>
<text x="1130.5" y="786.0" class="axis" text-anchor="middle">ambiguity</text>
<rect x="1157.0" y="575.5" width="37.0" height="174.5" fill="#B279A2"/>
<text x="1175.5" y="571.5" class="label" text-anchor="middle" transform="rotate(-70 1175.5 571.5)">0.428</text>
<text x="1175.5" y="764.0" class="axis" text-anchor="middle">eml</text>
<text x="1175.5" y="775.0" class="axis" text-anchor="middle">supervised</text>
<text x="1175.5" y="786.0" class="axis" text-anchor="middle">resistance</text>
<rect x="1202.0" y="742.9" width="37.0" height="7.1" fill="#9D755D"/>
<text x="1220.5" y="738.9" class="label" text-anchor="middle" transform="rotate(-70 1220.5 738.9)">0.017</text>
<text x="1220.5" y="764.0" class="axis" text-anchor="middle">merc</text>
<text x="1220.5" y="775.0" class="axis" text-anchor="middle">linear</text>
<rect x="1247.0" y="667.2" width="37.0" height="82.8" fill="#BAB0AC"/>
<text x="1265.5" y="663.2" class="label" text-anchor="middle" transform="rotate(-70 1265.5 663.2)">0.203</text>
<text x="1265.5" y="764.0" class="axis" text-anchor="middle">merc</text>
<text x="1265.5" y="775.0" class="axis" text-anchor="middle">energy</text>
<text x="1505.0" y="460.0" class="sub" text-anchor="middle">synthetic_shape: Clean selective AURC</text>
<line x1="1335.0" y1="750.0" x2="1715.0" y2="750.0" stroke="#999"/>
<line x1="1335.0" y1="485.0" x2="1335.0" y2="750.0" stroke="#999"/>
<line x1="1335.0" y1="750.0" x2="1715.0" y2="750.0" stroke="#e6e6e6"/>
<text x="1329.0" y="754.0" class="axis" text-anchor="end">0.00</text>
<line x1="1335.0" y1="629.5" x2="1715.0" y2="629.5" stroke="#e6e6e6"/>
<text x="1329.0" y="633.5" class="axis" text-anchor="end">0.25</text>
<line x1="1335.0" y1="509.1" x2="1715.0" y2="509.1" stroke="#e6e6e6"/>
<text x="1329.0" y="513.1" class="axis" text-anchor="end">0.50</text>
<rect x="1347.0" y="750.0" width="37.0" height="0.0" fill="#4C78A8"/>
<text x="1365.5" y="746.0" class="label" text-anchor="middle" transform="rotate(-70 1365.5 746.0)">0.000</text>
<text x="1365.5" y="764.0" class="axis" text-anchor="middle">linear</text>
<rect x="1392.0" y="749.9" width="37.0" height="0.1" fill="#72B7B2"/>
<text x="1410.5" y="745.9" class="label" text-anchor="middle" transform="rotate(-70 1410.5 745.9)">0.000</text>
<text x="1410.5" y="764.0" class="axis" text-anchor="middle">mlp</text>
<rect x="1437.0" y="750.0" width="37.0" height="0.0" fill="#54A24B"/>
<text x="1455.5" y="746.0" class="label" text-anchor="middle" transform="rotate(-70 1455.5 746.0)">0.000</text>
<text x="1455.5" y="764.0" class="axis" text-anchor="middle">cosine</text>
<text x="1455.5" y="775.0" class="axis" text-anchor="middle">prototype</text>
<rect x="1482.0" y="748.7" width="37.0" height="1.3" fill="#E45756"/>
<text x="1500.5" y="744.7" class="label" text-anchor="middle" transform="rotate(-70 1500.5 744.7)">0.003</text>
<text x="1500.5" y="764.0" class="axis" text-anchor="middle">eml</text>
<text x="1500.5" y="775.0" class="axis" text-anchor="middle">no</text>
<text x="1500.5" y="786.0" class="axis" text-anchor="middle">ambiguity</text>
<rect x="1527.0" y="749.8" width="37.0" height="0.2" fill="#F58518"/>
<text x="1545.5" y="745.8" class="label" text-anchor="middle" transform="rotate(-70 1545.5 745.8)">0.000</text>
<text x="1545.5" y="764.0" class="axis" text-anchor="middle">eml</text>
<text x="1545.5" y="775.0" class="axis" text-anchor="middle">centered</text>
<text x="1545.5" y="786.0" class="axis" text-anchor="middle">ambiguity</text>
<rect x="1572.0" y="749.7" width="37.0" height="0.3" fill="#B279A2"/>
<text x="1590.5" y="745.7" class="label" text-anchor="middle" transform="rotate(-70 1590.5 745.7)">0.001</text>
<text x="1590.5" y="764.0" class="axis" text-anchor="middle">eml</text>
<text x="1590.5" y="775.0" class="axis" text-anchor="middle">supervised</text>
<text x="1590.5" y="786.0" class="axis" text-anchor="middle">resistance</text>
<rect x="1617.0" y="748.0" width="37.0" height="2.0" fill="#9D755D"/>
<text x="1635.5" y="744.0" class="label" text-anchor="middle" transform="rotate(-70 1635.5 744.0)">0.004</text>
<text x="1635.5" y="764.0" class="axis" text-anchor="middle">merc</text>
<text x="1635.5" y="775.0" class="axis" text-anchor="middle">linear</text>
<rect x="1662.0" y="709.9" width="37.0" height="40.1" fill="#BAB0AC"/>
<text x="1680.5" y="705.9" class="label" text-anchor="middle" transform="rotate(-70 1680.5 705.9)">0.083</text>
<text x="1680.5" y="764.0" class="axis" text-anchor="middle">merc</text>
<text x="1680.5" y="775.0" class="axis" text-anchor="middle">energy</text>
<text x="70" y="875" class="note">Lower is better for ECE and selective AURC. Higher is better for accuracy. Values are means over seeds 0, 1, 2.</text>
</svg>